<?xml version="1.0" encoding="UTF-8" standalone="no"?>
<!DOCTYPE svg PUBLIC "-//W3C//DTD SVG 1.1//EN" "http://www.w3.org/Graphics/SVG/1.1/DTD/svg11.dtd">
<svg width="100%" height="100%" viewBox="0 0 900 900" version="1.1" xmlns="http://www.w3.org/2000/svg" xmlns:xlink="http://www.w3.org/1999/xlink" xml:space="preserve" xmlns:serif="http://www.serif.com/" style="fill-rule:evenodd;clip-rule:evenodd;stroke-linejoin:round;stroke-miterlimit:2;">
    <g transform="matrix(2.31314,0,0,2.31314,-176.877,-49.418)">
        <path d="M334.455,368.127C334.455,372.651 331.415,376.609 327.045,377.776C313.624,381.233 299.556,383.083 285.059,383.083C192.791,383.083 117.881,308.173 117.881,215.904C117.881,123.636 192.791,48.726 285.059,48.726C299.029,48.726 312.601,50.443 325.575,53.678C330.789,54.974 334.449,59.656 334.449,65.028C334.455,65.974 334.455,66.94 334.455,67.895C334.455,70.121 333.405,72.216 331.622,73.549C329.839,74.881 327.532,75.295 325.397,74.664C312.582,70.984 299.048,69.024 285.059,69.024C203.994,69.024 138.179,134.839 138.179,215.904C138.179,296.97 203.994,362.785 285.059,362.785C299.048,362.785 312.582,360.825 325.403,357.165C327.532,356.536 329.832,356.948 331.61,358.277C333.387,359.606 334.434,361.695 334.434,363.914C334.455,365.327 334.455,366.765 334.455,368.127Z"/>
    </g>
    <g transform="matrix(-1.47002,-1.80025e-16,1.80025e-16,-1.47002,977.489,767.383)">
        <path d="M334.455,367.907C334.456,372.565 331.322,376.64 326.82,377.835C313.466,381.254 299.475,383.083 285.059,383.083C192.791,383.083 117.881,308.173 117.881,215.904C117.881,123.636 192.791,48.726 285.059,48.726C298.508,48.726 311.589,50.318 324.122,53.323C330.172,54.825 334.42,60.256 334.42,66.49C334.455,66.49 334.455,66.491 334.455,66.491C334.455,69.041 333.259,71.444 331.223,72.98C329.187,74.515 326.549,75.007 324.096,74.307C311.669,70.854 298.576,69.024 285.059,69.024C203.994,69.024 138.179,134.839 138.179,215.904C138.179,296.97 203.994,362.785 285.059,362.785C298.198,362.785 310.937,361.056 323.059,357.813C325.758,357.064 328.652,357.62 330.882,359.315C333.112,361.011 334.421,363.651 334.421,366.452C334.455,366.943 334.455,367.429 334.455,367.907Z"/>
    </g>
    <g transform="matrix(3.08879,0,0,3.08879,-884.112,-838.282)">
        <path d="M444.869,425.496C443.426,422.938 442.179,420.691 441.13,418.755C440.08,416.82 439.129,415.082 438.276,413.54C437.423,411.998 436.685,410.604 436.062,409.358C435.438,408.111 434.832,406.897 434.241,405.716C433.716,406.897 433.142,408.111 432.519,409.358C431.896,410.604 431.174,411.998 430.354,413.54C429.534,415.082 428.599,416.804 427.549,418.706C426.5,420.609 425.253,422.839 423.81,425.398L413.28,444.096C412.099,446.195 410.607,447.884 408.803,449.164C406.999,450.443 404.752,451.082 402.062,451.082C399.503,451.082 397.191,450.344 395.124,448.868C393.057,447.392 391.565,445.112 390.646,442.029L373.917,384.165L394.288,384.165L400.487,407.094C401.537,410.834 402.406,414.114 403.095,416.935C403.784,419.756 404.391,422.511 404.916,425.201C405.965,422.905 407.195,420.363 408.606,417.575C410.016,414.786 411.87,411.26 414.166,406.996L423.023,390.463C423.876,388.823 424.728,387.527 425.581,386.576C426.434,385.625 427.336,384.887 428.287,384.362C429.239,383.837 430.239,383.493 431.289,383.329C432.339,383.165 433.454,383.083 434.635,383.083C435.881,383.083 437.029,383.165 438.079,383.329C439.129,383.493 440.129,383.837 441.081,384.362C442.032,384.887 442.95,385.625 443.836,386.576C444.722,387.527 445.591,388.823 446.444,390.463L455.202,407.094C456.449,409.39 457.531,411.408 458.45,413.146C459.368,414.885 460.188,416.459 460.91,417.87C461.631,419.28 462.271,420.576 462.829,421.757C463.386,422.938 463.928,424.086 464.452,425.201C464.977,422.577 465.617,419.822 466.371,416.935C467.126,414.048 467.995,410.768 468.979,407.094L475.179,384.165L495.057,384.165L478.033,442.029C477.114,445.112 475.622,447.392 473.555,448.868C471.489,450.344 469.176,451.082 466.617,451.082C463.993,451.082 461.779,450.459 459.975,449.213C458.171,447.966 456.645,446.26 455.399,444.096L444.869,425.496Z" style="fill-rule:nonzero;"/>
    </g>
</svg>
